<svg xmlns="http://www.w3.org/2000/svg" xmlns:svg="http://www.w3.org/2000/svg" id="svg2" width="106.667" height="106.667" version="1.1" viewBox="0 0 100 100"><title id="title5819">Gear as symbol for option button</title><g id="layer1" transform="translate(0,-952.36)"><path id="path2989" d="m 50.011,952.36 c -2.8839,0 -5.7139,0.25936 -8.4642,0.7281 l -1.3424,14.221 c -2.8444,0.79287 -5.5365,1.9015 -8.0546,3.322 l -10.99,-9.0785 c -4.6419,3.286 -8.7054,7.3259 -11.991,11.968 l 9.1012,10.99 c -1.4188,2.5151 -2.552,5.214 -3.3447,8.0546 l -14.197,1.35 c -0.46893,2.75 -0.728,5.58 -0.728,8.49 0,2.8897 0.25747,5.7085 0.7281,8.4641 l 14.198,1.3425 c 0.79274,2.8406 1.926,5.5395 3.3447,8.0546 l -9.0785,10.99 c 3.2796,4.6294 7.3161,8.6885 11.945,11.968 l 11.013,-9.1013 c 2.5197,1.4217 5.2082,2.5515 8.0546,3.3447 l 1.3424,14.221 c 2.7503,0.4688 5.5803,0.7054 8.4642,0.7054 2.8838,0 5.6911,-0.2366 8.4414,-0.7054 l 1.3424,-14.221 c 2.8465,-0.7932 5.5349,-1.923 8.0546,-3.3447 l 11.013,9.1013 c 4.6293,-3.2797 8.6658,-7.3388 11.945,-11.968 l -9.0785,-10.99 c 1.4188,-2.5151 2.552,-5.214 3.3447,-8.0546 l 14.198,-1.3425 c 0.47063,-2.7556 0.7281,-5.5744 0.7281,-8.4641 0,-2.8848 -0.25907,-5.7131 -0.7281,-8.4642 l -14.198,-1.3424 c -0.79274,-2.8406 -1.926,-5.5395 -3.3447,-8.0546 l 9.1012,-10.99 c -3.2855,-4.6423 -7.349,-8.6821 -11.991,-11.968 l -10.99,9.0785 c -2.5181,-1.4205 -5.2102,-2.5291 -8.0546,-3.322 l -1.3424,-14.221 c -2.7503,-0.46874 -5.5576,-0.7281 -8.4414,-0.7281 z m 0,30.967 c 10.516,0 19.022,8.528 19.022,19.044 0,10.516 -8.5053,19.044 -19.022,19.044 -10.516,0 -19.044,-8.528 -19.044,-19.044 0,-10.516 8.528,-19.044 19.044,-19.044 z" style="fill:#fff"/></g><metadata id="metadata7"/></svg>