<svg xmlns="http://www.w3.org/2000/svg" xmlns:svg="http://www.w3.org/2000/svg" id="svg2" width="391.082" height="318.56" version="1.1" viewBox="0 0 391.082 318.56"><g id="layer1" transform="translate(-150.43,-266.66)"><path id="path2985" d="m 345,266.66 c -75.6,0 -138.88,52.668 -155.19,123.31 l 56.531,0 c 14.69,-40.27 53.31,-69.03 98.66,-69.03 45.35,0 83.969,28.763 98.656,69.031 l 56.531,0 c -16.31,-70.65 -79.59,-123.31 -155.19,-123.31 z M 190.47,464.75 c 17.33,69.21 79.95,120.47 154.53,120.47 74.584,0 137.2,-51.256 154.53,-120.47 l -56.938,0 c -15.43,38.78 -53.31,66.19 -97.59,66.19 -44.28,0 -82.158,-27.41 -97.594,-66.188 l -56.938,0 z" style="fill:#fff"/><path id="path2992" d="m 150.43,470.11 68.34,-77.194 71.312,77.315" style="fill:#fff"/><path id="path3770" d="m 401.86,384.46 68.34,77.194 71.312,-77.315" style="fill:#fff"/></g><metadata id="metadata8"/></svg>