<svg xmlns="http://www.w3.org/2000/svg" xmlns:svg="http://www.w3.org/2000/svg" id="svg4789" width="533.333" height="533.333" version="1.0" viewBox="0 0 500 500"><title id="title3112">Trashcan</title><g id="layer2" transform="translate(-38.054,173.65)"><path id="rect2940-7" d="m 142.31,300.94 h 288.87 v 25.404 H 142.31 Z m -52.683,-474.6 h 396.6 v 25.404 h -396.6 z m 14.773,44.067 5.2167,41.945 -58.587,-32.943 -12.975,22.049 75.441,42.467 42.269,340.13 h 17.121 l -39.794,-413.65 h -28.692 z m 55.578,0 31.367,413.65 h 34.912 l -29.494,-413.65 h -36.784 z m 72.164,0 12.64,413.65 h 33.708 l -8.427,-413.65 z m 73.368,0 -8.427,413.65 h 34.176 l 12.64,-413.65 h -38.39 z m 73.769,0 -29.494,413.65 h 34.912 l 31.367,-413.65 H 379.28 Z m 63.67,0 -39.794,413.65 h 16.988 l 42.202,-340.06 75.709,-42.532 -13.042,-22.049 -58.721,33.074 5.2167,-42.076 h -28.558 z" style="fill:#fff"/></g><metadata id="metadata11"/></svg>